<svg width="86" height="82" viewBox="0 0 86 82" fill="none" xmlns="http://www.w3.org/2000/svg">
<path d="M56.5955 1.6886C59.3664 -0.825675 63.7645 1.50127 63.2447 5.20658L60.0233 28.1695C59.7893 29.8374 60.6251 31.4732 62.1138 32.2609L83.8038 43.7367C87.3203 45.5973 86.2597 50.893 82.2978 51.2557L59.6088 53.333C57.7597 53.5023 56.2702 54.9218 56.0123 56.7606L52.9673 78.4658C52.4338 82.2684 47.3695 83.2079 45.5077 79.8496L33.4635 58.1243C32.6948 56.7376 31.1795 55.9358 29.6005 56.0804L4.86345 58.3452C1.03961 58.6953 -1.03283 53.9799 1.81083 51.3996L18.0424 36.6712C19.4175 35.4235 19.7531 33.3935 18.8528 31.7695L7.80583 11.8429C5.87683 8.36338 9.65827 4.50726 13.1749 6.36784L34.8648 17.8437C36.3535 18.6314 38.1761 18.4022 39.4234 17.2704L56.5955 1.6886Z" fill="#FF00FF"/>
</svg>
